<?xml version="1.0" encoding="UTF-8" standalone="no"?>
<svg
   width="2048"
   height="2048"
   viewBox="0 0 512 512"
   version="1.1"
   id="svg8"
   sodipodi:docname="logo-no-bg-outline.svg"
   inkscape:version="1.4.2 (ebf0e940d0, 2025-05-08)"
   xmlns:inkscape="http://www.inkscape.org/namespaces/inkscape"
   xmlns:sodipodi="http://sodipodi.sourceforge.net/DTD/sodipodi-0.dtd"
   xmlns="http://www.w3.org/2000/svg"
   xmlns:svg="http://www.w3.org/2000/svg">
  <sodipodi:namedview
     id="namedview8"
     pagecolor="#ffffff"
     bordercolor="#000000"
     borderopacity="0.25"
     inkscape:showpageshadow="2"
     inkscape:pageopacity="0.0"
     inkscape:pagecheckerboard="0"
     inkscape:deskcolor="#d1d1d1"
     inkscape:zoom="0.40120023"
     inkscape:cx="89.730755"
     inkscape:cy="655.53302"
     inkscape:window-width="2560"
     inkscape:window-height="1364"
     inkscape:window-x="0"
     inkscape:window-y="0"
     inkscape:window-maximized="1"
     inkscape:current-layer="svg8" />
  <defs
     id="defs1">
    <clipPath
       id="vinyl-clip">
      <path
         d="           M256 96           C330 96 400 140 416 216           C432 292 384 368 304 392           C224 416 136 376 112 304           C88 232 140 96 256 96           Z         "
         id="path1" />
    </clipPath>
  </defs>
  <!-- Wobbly vinyl shape -->
  <path
     d="m 245.21268,11.296314 c 119.98556,0 233.4854,71.342762 259.42823,194.571176 C 530.58375,329.0959 452.75526,452.32431 323.04115,491.23854 193.32703,530.15277 50.641504,465.29573 11.727268,348.55302 -27.186967,231.81031 57.127213,11.296314 245.21268,11.296314 Z"
     fill="#ffffff"
     id="path2"
     style="stroke-width:1.62142" />
  <!-- Groove rings (only visible inside path) -->
  <g
     clip-path="url(#vinyl-clip)"
     fill="none"
     stroke="#000000"
     stroke-width="3"
     opacity="0.5"
     id="g5"
     transform="matrix(1.6214264,0,0,1.6214264,-169.87249,-144.36062)">
    <circle
       cx="256"
       cy="256"
       r="165"
       id="circle2" />
    <circle
       cx="256"
       cy="256"
       r="150"
       id="circle3" />
    <circle
       cx="256"
       cy="256"
       r="135"
       id="circle4" />
    <circle
       cx="256"
       cy="256"
       r="120"
       id="circle5" />
  </g>
  <!-- Inner label -->
  <circle
     cx="245.21266"
     cy="270.72458"
     fill="#000000"
     id="circle6"
     r="162.14264"
     style="stroke-width:1.62142" />
  <circle
     cx="245.21266"
     cy="270.72458"
     fill="#ffffff"
     id="circle7"
     r="129.71414"
     style="stroke-width:1.62142" />
  <!-- Center hole -->
  <circle
     cx="245.21266"
     cy="270.72458"
     fill="#000000"
     id="circle8"
     r="25.942825"
     style="stroke-width:1.62142" />
  <!-- Outline -->
  <!-- Black outline -->
  <path
     d="m 245.21268,11.296314 c 119.98556,0 233.4854,71.342762 259.42823,194.571176 C 530.58375,329.0959 452.75526,452.32431 323.04115,491.23854 193.32703,530.15277 50.641504,465.29573 11.727268,348.55302 -27.186967,231.81031 57.127213,11.296314 245.21268,11.296314 Z"
     fill="none"
     stroke="#000000"
     stroke-width="4.77805"
     id="path8" />
</svg>
